<?xml version="1.0" encoding="UTF-8" standalone="no"?>
<!-- Created with Inkscape (http://www.inkscape.org/) -->

<svg
   xmlns:dc="http://purl.org/dc/elements/1.1/"
   xmlns:cc="http://creativecommons.org/ns#"
   xmlns:rdf="http://www.w3.org/1999/02/22-rdf-syntax-ns#"
   xmlns:svg="http://www.w3.org/2000/svg"
   xmlns="http://www.w3.org/2000/svg"
   xmlns:sodipodi="http://sodipodi.sourceforge.net/DTD/sodipodi-0.dtd"
   xmlns:inkscape="http://www.inkscape.org/namespaces/inkscape"
   version="1.1"
   id="svg64"
   width="197"
   height="224.77727"
   viewBox="0 0 197 224.77727"
   sodipodi:docname="gift-icon.svg"
   inkscape:version="0.92.4 (unknown)">
  <path
     d="m 14,168.27727 v -56.5 h 23 c 12.65,0 23,0.213 23,0.47333 0,0.26034 -5.22194,9.7384 -11.60431,21.06236 -6.38237,11.32396 -11.44487,20.72053 -11.25,20.88126 0.19487,0.16073 4.31478,-0.46985 9.15535,-1.40128 l 8.80103,-1.69352 4.06293,6.83892 c 2.23462,3.76141 4.34915,6.82267 4.69897,6.80279 C 64.21379,164.72123 69.675,155.43836 76,144.11248 82.325,132.7866 88.94888,120.99036 90.71972,117.89862 l 3.21973,-5.62135 0.0303,56.25 0.0302,56.25 h -40 -40 z m 89,0.27749 c 0,-46.98577 0.21756,-55.89844 1.32426,-54.25 0.72834,1.08488 7.3043,12.66495 14.61324,25.73348 7.30894,13.06853 13.66178,23.99137 14.11743,24.27298 0.45565,0.2816 2.65499,-2.5625 4.88742,-6.32024 l 4.05896,-6.83226 8.49405,1.48124 c 4.67172,0.81468 8.72445,1.25084 9.00605,0.96923 0.2816,-0.2816 -4.66601,-9.63123 -10.9947,-20.77696 C 142.17802,121.6865 137,112.38952 137,112.17227 c 0,-0.21725 10.575,-0.395 23.5,-0.395 H 184 v 56.5 56.5 H 143.5 103 Z M 0,79.794738 V 57.812207 L 24.57676,57.544738 49.15352,57.277268 43.21078,53.08732 C 36.71546,48.507785 31.40304,41.442556 30.38845,36.034347 29.37785,30.647368 30.55452,21.683572 33.02662,15.937022 37.57385,5.3667017 49.11753,-1.1894636 60.77041,0.18010302 69.391,1.1932837 76.57183,5.1842268 85.08678,13.694583 c 6.42167,6.418206 8.01582,8.713421 10.38059,14.945651 l 2.79381,7.362967 2.98555,-5.362967 C 113.8867,7.9349298 123.28408,0.50147931 139.5,0.38138819 c 7.04975,-0.0522087 8.64049,0.29280711 13.39221,2.90464341 8.80814,4.8415015 13.85764,15.2850824 12.83631,26.5485614 -0.85863,9.46912 -6.49948,17.221144 -17.94199,24.657071 L 143.5,57.277268 170.25,57.543601 197,57.809935 V 79.793601 101.77727 H 150.5 104 v -22.500002 -22.5 H 98.5 93 v 22.5 22.500002 H 46.5 0 Z M 124.66358,49.748583 c 13.59668,-4.473471 23.19027,-11.003196 25.98929,-17.689196 3.77053,-9.006655 -0.21364,-17.027428 -8.94705,-18.01181 -5.99242,-0.675433 -12.26706,1.618687 -16.38884,5.992061 -6.64706,7.052774 -18.21966,27.838245 -18.29324,32.856348 -0.0212,1.447756 0.54802,1.485808 5.38984,0.36029 2.97747,-0.692136 8.48997,-2.270597 12.25,-3.507693 z M 89.55412,51.027268 C 88.61824,47.143577 83.58543,36.500088 79.55687,29.884883 73.04617,19.193785 65.70375,13.840344 57.5,13.802968 c -12.9277,-0.0589 -18.88139,16.441857 -9.26932,25.690078 7.05501,6.787947 19.5819,11.101564 41.12773,14.16228 0.47212,0.06707 0.56019,-1.115558 0.19571,-2.628058 z"
     id="path74"
     inkscape:connector-curvature="0" />
</svg>
