<svg id="Слой_1" data-name="Слой 1" xmlns="http://www.w3.org/2000/svg" viewBox="0 0 43.07 43.1"><title>телефон1</title><path  d="M110.3,36.5l-8.7-5.8a2.52,2.52,0,0,0-3.4.6l-2.5,3.3a1.08,1.08,0,0,1-1.4.3l-.5-.3a29,29,0,0,1-7.6-5.9c-4-4-5.1-6-5.9-7.6l-.3-.6a1,1,0,0,1,.3-1.4l3.2-2.5a2.63,2.63,0,0,0,.6-3.4L78.3,4.5a2.53,2.53,0,0,0-3.4-.8L71.3,5.9a5,5,0,0,0-2.3,3c-1.3,4.8-.3,13,11.8,25.1,9.6,9.6,16.8,12.2,21.7,12.2a13.17,13.17,0,0,0,3.4-.4,5.35,5.35,0,0,0,3-2.3l2.2-3.6a2.74,2.74,0,0,0-.8-3.4Zm-.5,2.7-2.2,3.6a4.14,4.14,0,0,1-2.2,1.7c-4.4,1.2-12.1.2-23.7-11.4S69.1,13.8,70.3,9.4A4.14,4.14,0,0,1,72,7.2L75.6,5a1.12,1.12,0,0,1,1.5.3L80.2,10l2.6,4a1.21,1.21,0,0,1-.2,1.5L79.3,18a2.5,2.5,0,0,0-.7,3.2l.3.5c.9,1.7,2.1,3.8,6.2,7.9s6.2,5.3,7.9,6.2l.5.3a2.48,2.48,0,0,0,3.2-.7l2.5-3.3a1,1,0,0,1,1.5-.2l8.7,5.8a1.06,1.06,0,0,1,.4,1.5Z" transform="translate(-68.44 -3.23)"/><path  d="M92.8,10.5a12.08,12.08,0,0,1,12.1,12.1c0,.4.2.8.6.8s.8-.2.8-.6v-.2A13.61,13.61,0,0,0,92.7,9c-.4,0-.8.2-.8.6s.2.8.6.8c.2.2.3.2.3.1Z" transform="translate(-68.44 -3.23)"/><path  d="M92.8,14.8a7.92,7.92,0,0,1,7.9,7.9c0,.4.2.8.6.8s.8-.2.8-.6v-.2a9.35,9.35,0,0,0-9.3-9.3c-.4,0-.8.2-.8.6s.2.8.6.8Z" transform="translate(-68.44 -3.23)"/><path  d="M92.8,19.1a3.59,3.59,0,0,1,3.6,3.6h0c0,.4.2.8.6.8s.8-.2.8-.6v-.2a5,5,0,0,0-5-5c-.4,0-.8.2-.8.6s.2.8.6.8Z" transform="translate(-68.44 -3.23)"/></svg>