<?xml version="1.0" encoding="UTF-8" standalone="no"?>
<!-- Created with Inkscape (http://www.inkscape.org/) -->

<svg
   xmlns:dc="http://purl.org/dc/elements/1.1/"
   xmlns:cc="http://creativecommons.org/ns#"
   xmlns:rdf="http://www.w3.org/1999/02/22-rdf-syntax-ns#"
   xmlns:svg="http://www.w3.org/2000/svg"
   xmlns="http://www.w3.org/2000/svg"
   xmlns:sodipodi="http://sodipodi.sourceforge.net/DTD/sodipodi-0.dtd"
   xmlns:inkscape="http://www.inkscape.org/namespaces/inkscape"
   version="1.1"
   id="svg80"
   width="798.89746"
   height="798.84619"
   viewBox="0 0 798.89746 798.84619"
   sodipodi:docname="phone-icon.svg"
   inkscape:version="0.92.4 (unknown)">
  <path
     d="M 617.90499,798.66658 C 516.33819,791.64426 395.29619,731.4596 280.52485,630.91397 234.89685,590.9415 187.78575,542.82192 150.67435,498.28388 84.119651,418.41049 36.620651,334.93672 14.504151,258.98138 3.9244512,222.64737 -0.80834884,191.93898 0.11235116,165.60146 c 0.3938,-11.26634 0.8099,-13.732 3.43790004,-20.37329 1.6445,-4.15563 4.6171,-10.00715 6.6058998,-13.00336 3.0863,-4.64985 113.997799,-116.165537 126.501699,-127.1909335 3.5643,-3.142785 4.9785,-3.75 8.7342,-3.75 3.4984,0 5.1363,0.603235 7.4669,2.75 1.7128,1.577754 9.329,14.6855945 17.8669,30.7500005 8.1849,15.4 30.5856,57.475 49.7794,93.500003 l 34.8978,65.5 -0.02,7.5 c -0.033,12.36218 -1.0022,13.75241 -30.2676,43.3944 -27.7819,28.13933 -29.5353,30.49481 -32.9249,44.23046 -1.9181,7.77271 -1.024,15.76636 3.293,29.44066 16.2052,51.33088 63.1934,115.28389 134.92114,183.63393 58.64062,55.87916 114.65041,92.57736 157,102.86803 11.45538,2.78358 16.78653,2.99792 24.36904,0.97976 12.61567,-3.35778 14.92642,-5.16524 46.13096,-36.08351 18.93849,-18.76475 31.06726,-30.01794 33.8776,-31.43197 5.36521,-2.69952 13.27053,-3.61741 18.64412,-2.16479 2.21194,0.59795 23.58694,12.62261 47.5,26.72146 23.91305,14.09886 62.60328,36.88182 85.97828,50.62882 23.375,13.74699 44.65651,26.35599 47.29225,28.01999 7.22592,4.56191 9.48135,10.51197 6.27815,16.56242 -0.78628,1.48519 -30.37378,31.53793 -65.75,66.78386 -62.24148,62.01226 -64.56668,64.20095 -71.94021,67.71659 -4.1909,1.99819 -9.67714,4.09412 -12.19164,4.65764 -5.30571,1.18903 -21.71175,1.97647 -29.68855,1.42495 z M 469.10741,413.03388 c -10.30488,-32.45709 -31.1559,-59.91659 -60.20242,-79.28282 -11.37215,-7.58216 -21.62282,-12.57026 -35.90158,-17.47013 l -10.59842,-3.63692 -0.2681,-23.68007 -0.2681,-23.68006 h 2.5758 c 1.4167,0 7.16234,0.94794 12.7681,2.10653 70.86382,14.64607 127.0126,71.04898 141.67677,142.31799 3.13628,15.24259 5.86939,13.57548 -22.25611,13.57548 h -24.27164 z m 127.32069,5 c -2.4974,-19.72904 -7.35288,-40.57556 -13.3973,-57.52 -22.39966,-62.7934 -68.4692,-114.81109 -128.22392,-144.7792 -28.19745,-14.14155 -49.3477,-20.29309 -89.65189,-26.07518 l -3.25,-0.46625 v -28.95468 c 0,-22.50193 0.27857,-28.95267 1.25,-28.94562 0.6875,0.005 6.92595,0.67741 13.86323,1.49425 104.30121,12.28115 195.8982,76.26829 243.64671,170.20491 18.84711,37.0783 28.42574,69.9613 33.65668,115.54177 l 0.54512,4.75 H 625.9797 597.09267 Z m 132.14305,-11 C 723.1976,357.17359 711.11116,315.99016 688.73147,271.28388 660.74611,215.37953 622.09364,169.41064 571.2484,131.56275 515.8,90.288387 449.42188,64.688537 379.09503,57.455549 l -16.69004,-1.71654 -0.26641,-27.411161 c -0.14652,-15.076137 0.0785,-27.71683346 0.5,-28.09043446 0.42153,-0.373601 7.51641,-0.297917 15.76641,0.168186 C 465.03453,5.2999435 552.8141,41.774671 626.66369,103.56364 c 13.83733,11.5775 41.65941,39.13386 53.59293,53.08106 64.01717,74.81952 100.25511,159.81995 106.64097,250.13918 0.54441,7.7 0.99379,14.5625 0.99862,15.25 0.007,0.97126 -6.41146,1.25 -28.78249,1.25 h -28.79127 z"
     id="path90"
     inkscape:connector-curvature="0" />
</svg>
